<svg width="71" height="71" viewBox="0 0 71 71" fill="none" xmlns="http://www.w3.org/2000/svg">
<path fill-rule="evenodd" clip-rule="evenodd" d="M35.5 70.375C40.0799 70.375 44.6149 69.4729 48.8461 67.7203C53.0773 65.9677 56.9219 63.3988 60.1603 60.1603C63.3988 56.9219 65.9677 53.0773 67.7203 48.8461C69.4729 44.6149 70.375 40.0799 70.375 35.5C70.375 30.9201 69.4729 26.3851 67.7203 22.1539C65.9677 17.9227 63.3988 14.0781 60.1603 10.8397C56.9219 7.60121 53.0773 5.03233 48.8461 3.2797C44.6149 1.52707 40.0799 0.625 35.5 0.625C26.2506 0.625 17.38 4.29932 10.8397 10.8397C4.29932 17.38 0.625 26.2506 0.625 35.5C0.625 44.7494 4.29932 53.62 10.8397 60.1603C17.38 66.7007 26.2506 70.375 35.5 70.375ZM34.601 49.605L53.976 26.355L48.024 21.395L31.3615 41.3861L22.7396 32.7604L17.2604 38.2396L28.8854 49.8646L31.8846 52.8639L34.601 49.605Z" fill="#FA2454"/>
</svg>
